<mxfile host="app.diagrams.net" modified="2020-12-04T08:23:09.298Z" agent="5.0 (Macintosh; Intel Mac OS X 10_15_4) AppleWebKit/537.36 (KHTML, like Gecko) Chrome/87.0.4280.88 Safari/537.36" etag="D1XwWxqrmKGsSehlIPpF" version="13.10.4" type="github">
  <diagram id="gHt8bbbZ3dJjCEYqsG1Y" name="Page-1">
    <mxGraphModel dx="946" dy="557" grid="1" gridSize="10" guides="1" tooltips="1" connect="1" arrows="1" fold="1" page="1" pageScale="1" pageWidth="827" pageHeight="1169" math="0" shadow="0">
      <root>
        <mxCell id="0" />
        <mxCell id="1" parent="0" />
        <mxCell id="D8wU897vGo1aJ33ScVLg-3" style="edgeStyle=orthogonalEdgeStyle;rounded=0;orthogonalLoop=1;jettySize=auto;html=1;entryX=0;entryY=0.5;entryDx=0;entryDy=0;" edge="1" parent="1" source="D8wU897vGo1aJ33ScVLg-1" target="D8wU897vGo1aJ33ScVLg-2">
          <mxGeometry relative="1" as="geometry" />
        </mxCell>
        <mxCell id="D8wU897vGo1aJ33ScVLg-1" value="相关文献查询" style="rounded=0;whiteSpace=wrap;html=1;" vertex="1" parent="1">
          <mxGeometry x="40" y="82.5" width="110" height="40" as="geometry" />
        </mxCell>
        <mxCell id="D8wU897vGo1aJ33ScVLg-2" value="&lt;p class=&quot;MsoNormal&quot; style=&quot;margin: 0pt 0pt 0.0001pt ; text-indent: 0pt ; text-align: justify ; line-height: 24px ; font-family: &amp;#34;times new roman&amp;#34;&quot;&gt;&lt;font face=&quot;宋体&quot; style=&quot;font-size: 12px&quot;&gt;车辆路径规划算法&lt;/font&gt;&lt;/p&gt;&lt;p class=&quot;MsoNormal&quot; style=&quot;margin: 0pt 0pt 0.0001pt ; text-indent: 0pt ; text-align: justify ; line-height: 24px ; font-family: &amp;#34;times new roman&amp;#34;&quot;&gt;&lt;font face=&quot;宋体&quot; style=&quot;font-size: 12px&quot;&gt;推荐算法&lt;/font&gt;&lt;/p&gt;" style="rounded=0;whiteSpace=wrap;html=1;" vertex="1" parent="1">
          <mxGeometry x="300" y="75" width="130" height="55" as="geometry" />
        </mxCell>
        <mxCell id="D8wU897vGo1aJ33ScVLg-10" style="edgeStyle=orthogonalEdgeStyle;rounded=0;orthogonalLoop=1;jettySize=auto;html=1;entryX=0;entryY=0.5;entryDx=0;entryDy=0;" edge="1" parent="1" source="D8wU897vGo1aJ33ScVLg-4" target="D8wU897vGo1aJ33ScVLg-9">
          <mxGeometry relative="1" as="geometry" />
        </mxCell>
        <mxCell id="D8wU897vGo1aJ33ScVLg-4" value="系统整体设计" style="rounded=0;whiteSpace=wrap;html=1;" vertex="1" parent="1">
          <mxGeometry x="40" y="181.25" width="110" height="40" as="geometry" />
        </mxCell>
        <mxCell id="D8wU897vGo1aJ33ScVLg-12" style="edgeStyle=orthogonalEdgeStyle;rounded=0;orthogonalLoop=1;jettySize=auto;html=1;" edge="1" parent="1" source="D8wU897vGo1aJ33ScVLg-6" target="D8wU897vGo1aJ33ScVLg-11">
          <mxGeometry relative="1" as="geometry" />
        </mxCell>
        <mxCell id="D8wU897vGo1aJ33ScVLg-6" value="推荐模型设计" style="rounded=0;whiteSpace=wrap;html=1;" vertex="1" parent="1">
          <mxGeometry x="40" y="280" width="110" height="40" as="geometry" />
        </mxCell>
        <mxCell id="D8wU897vGo1aJ33ScVLg-14" style="edgeStyle=orthogonalEdgeStyle;rounded=0;orthogonalLoop=1;jettySize=auto;html=1;entryX=0;entryY=0.5;entryDx=0;entryDy=0;" edge="1" parent="1" source="D8wU897vGo1aJ33ScVLg-7" target="D8wU897vGo1aJ33ScVLg-13">
          <mxGeometry relative="1" as="geometry" />
        </mxCell>
        <mxCell id="D8wU897vGo1aJ33ScVLg-7" value="算法与系统整合" style="rounded=0;whiteSpace=wrap;html=1;" vertex="1" parent="1">
          <mxGeometry x="40" y="370" width="110" height="40" as="geometry" />
        </mxCell>
        <mxCell id="D8wU897vGo1aJ33ScVLg-9" value="&lt;p class=&quot;MsoNormal&quot; style=&quot;margin: 0pt 0pt 0.0001pt ; text-indent: 0pt ; text-align: justify ; line-height: 24px ; font-family: &amp;#34;times new roman&amp;#34;&quot;&gt;&lt;font style=&quot;font-size: 12px&quot;&gt;&lt;span&gt;&lt;font face=&quot;宋体&quot; style=&quot;font-size: 12px&quot;&gt;需求分析&lt;/font&gt;&lt;/span&gt;&lt;/font&gt;&lt;/p&gt;&lt;p class=&quot;MsoNormal&quot; style=&quot;margin: 0pt 0pt 0.0001pt ; text-indent: 0pt ; text-align: justify ; line-height: 24px ; font-family: &amp;#34;times new roman&amp;#34;&quot;&gt;&lt;font style=&quot;font-size: 12px&quot;&gt;&lt;span&gt;&lt;font face=&quot;宋体&quot; style=&quot;font-size: 12px&quot;&gt;架构设计&lt;/font&gt;&lt;/span&gt;&lt;/font&gt;&lt;/p&gt;&lt;p class=&quot;MsoNormal&quot; style=&quot;margin: 0pt 0pt 0.0001pt ; text-indent: 0pt ; text-align: justify ; line-height: 24px ; font-family: &amp;#34;times new roman&amp;#34;&quot;&gt;&lt;span&gt;&lt;font face=&quot;宋体&quot; style=&quot;font-size: 12px&quot;&gt;算法模型与系统整合&lt;/font&gt;&lt;/span&gt;&lt;span style=&quot;font-size: 12pt&quot;&gt;&lt;/span&gt;&lt;/p&gt;" style="rounded=0;whiteSpace=wrap;html=1;" vertex="1" parent="1">
          <mxGeometry x="300" y="162.5" width="130" height="77.5" as="geometry" />
        </mxCell>
        <mxCell id="D8wU897vGo1aJ33ScVLg-11" value="&lt;p class=&quot;MsoNormal&quot; style=&quot;margin: 0pt 0pt 0.0001pt ; text-indent: 0pt ; text-align: justify ; line-height: 24px ; font-family: &amp;#34;times new roman&amp;#34;&quot;&gt;&lt;font style=&quot;font-size: 12px&quot;&gt;&lt;span&gt;&lt;font face=&quot;宋体&quot; style=&quot;font-size: 12px&quot;&gt;数据集分析与处理&lt;/font&gt;&lt;/span&gt;&lt;/font&gt;&lt;/p&gt;&lt;p class=&quot;MsoNormal&quot; style=&quot;margin: 0pt 0pt 0.0001pt ; text-indent: 0pt ; text-align: justify ; line-height: 24px ; font-family: &amp;#34;times new roman&amp;#34;&quot;&gt;&lt;font style=&quot;font-size: 12px&quot;&gt;&lt;span&gt;&lt;font face=&quot;宋体&quot; style=&quot;font-size: 12px&quot;&gt;模型设计与特征整合&lt;/font&gt;&lt;/span&gt;&lt;/font&gt;&lt;/p&gt;&lt;p class=&quot;MsoNormal&quot; style=&quot;margin: 0pt 0pt 0.0001pt ; text-indent: 0pt ; text-align: justify ; line-height: 24px ; font-family: &amp;#34;times new roman&amp;#34;&quot;&gt;&lt;span&gt;&lt;font face=&quot;宋体&quot; style=&quot;font-size: 12px&quot;&gt;实验与结果分析&lt;/font&gt;&lt;/span&gt;&lt;span style=&quot;font-size: 12pt&quot;&gt;&lt;/span&gt;&lt;/p&gt;" style="rounded=0;whiteSpace=wrap;html=1;" vertex="1" parent="1">
          <mxGeometry x="300" y="261.25" width="130" height="77.5" as="geometry" />
        </mxCell>
        <mxCell id="D8wU897vGo1aJ33ScVLg-13" value="技术评估+实现" style="rounded=0;whiteSpace=wrap;html=1;" vertex="1" parent="1">
          <mxGeometry x="300" y="370" width="130" height="40" as="geometry" />
        </mxCell>
        <mxCell id="D8wU897vGo1aJ33ScVLg-17" style="edgeStyle=orthogonalEdgeStyle;rounded=0;orthogonalLoop=1;jettySize=auto;html=1;entryX=0;entryY=0.5;entryDx=0;entryDy=0;" edge="1" parent="1" source="D8wU897vGo1aJ33ScVLg-15" target="D8wU897vGo1aJ33ScVLg-16">
          <mxGeometry relative="1" as="geometry" />
        </mxCell>
        <mxCell id="D8wU897vGo1aJ33ScVLg-15" value="算法与系统整合" style="rounded=0;whiteSpace=wrap;html=1;" vertex="1" parent="1">
          <mxGeometry x="40" y="460" width="110" height="40" as="geometry" />
        </mxCell>
        <mxCell id="D8wU897vGo1aJ33ScVLg-16" value="业务场景应用+总结" style="rounded=0;whiteSpace=wrap;html=1;" vertex="1" parent="1">
          <mxGeometry x="300" y="460" width="130" height="40" as="geometry" />
        </mxCell>
      </root>
    </mxGraphModel>
  </diagram>
</mxfile>
